# xmcd
#
# Track frame offsets:
#	150
#	17320
#	27742
#	39125
#	54615
#	71157
#	90910
#	112060
#	123850
#	135425
#
# Disc length: 1979
#
# Revision: 3
# Processed by: cddbd v1.5.1PL0 Copyright (c) Steve Scherf et al.
# Submitted via: DiscPlay 4.0.4
# Normalized: r1:DSETVAR1,TDELIM( - ),TSWAP
#
DISCID=7a07b90a
DTITLE=Various Artist - Country's Greatest Hits: Sweet Country Rock
DYEAR=1900
DGENRE=
TTITLE0=Reba McEntire - New Fool At An Old Game
TTITLE1=Kathy Mattea - Burnin' Old Memories
TTITLE2=Patty Loveless - Timber I'm Falling In Love
TTITLE3=Tanya Tucker - Highway Robbery
TTITLE4=Jann Browne - You Ain't Down Home
TTITLE5=K.D. Lang - Pulling Back The Reigns
TTITLE6=Robin Lee - Black Velvet
TTITLE7=Sweethearts Of The Rodeo - I Feel Fine
TTITLE8=Highway 101 - Walkin', Talkin', Cryin', Barely Beatin' Broken Heart
TTITLE9=Anne Murray - Just Another Woman In Love
EXTD=
EXTT0=
EXTT1=
EXTT2=
EXTT3=
EXTT4=
EXTT5=
EXTT6=
EXTT7=
EXTT8=
EXTT9=
PLAYORDER=
